/* XPM */
static char * broken_xpm[] = {
"16 16 16 1",
" 	c None",
".	c #787878",
"+	c #FFFFFF",
"@	c #CDCDCD",
"#	c #BCBCBC",
"$	c #F4FFCC",
"%	c #545454",
"&	c #259A65",
"*	c #898989",
"=	c #00FD9B",
"-	c #3A6566",
";	c #DBCDFF",
">	c #8A65CE",
",	c #FF6BCD",
"'	c #ACACAC",
")	c #991067",
"............    ",
".+++++++++++@   ",
".+###..#####+@  ",
".+##.$.%####++@ ",
".+##&*=-####%%%%",
".+##%&-%*####**%",
".+###%%%*#####+%",
".+####**....%+%*",
".+.%####.;;>+%* ",
".+.,%###.;+%%'  ",
".+.,)%#+++%*   %",
".+.,,)+%**'   +%",
".+.)+%%*     ++%",
".+#%+*      ##+%",
".++%*'     ++++%",
"%%%*      %%%%%%"};
